<?xml version="1.0" standalone="no"?>
<!DOCTYPE svg PUBLIC "-//W3C//DTD SVG 20010904//EN"
 "http://www.w3.org/TR/2001/REC-SVG-20010904/DTD/svg10.dtd">
<svg version="1.0" xmlns="http://www.w3.org/2000/svg"
 width="793.000000pt" height="793.000000pt" viewBox="0 0 793.000000 793.000000"
 preserveAspectRatio="xMidYMid meet">
<metadata>
Created by potrace 1.11, written by Peter Selinger 2001-2013
</metadata>
<g transform="translate(0.000000,793.000000) scale(0.100000,-0.100000)"
fill="#000000" stroke="none">
<path d="M3868 6585 c-2 -1 -36 -6 -77 -9 -41 -4 -77 -8 -80 -11 -4 -2 -25 -6
-47 -9 -222 -34 -541 -162 -756 -306 -252 -169 -469 -393 -625 -643 -46 -75
-117 -215 -173 -342 -12 -26 -68 -198 -75 -227 -2 -13 -9 -43 -15 -68 -14 -62
-31 -150 -34 -180 -2 -14 -7 -59 -12 -100 -9 -89 -12 -3672 -3 -3662 12 12
225 308 374 518 50 70 374 522 450 626 38 54 89 124 113 157 l43 60 3 1128 c2
1014 4 1135 19 1201 67 289 202 502 431 675 28 22 101 64 162 93 427 208 918
124 1249 -213 328 -334 404 -826 193 -1248 -149 -299 -444 -519 -778 -580
-108 -19 -326 -13 -410 13 -36 10 -72 22 -80 25 -11 5 -95 -107 -316 -421
l-301 -427 33 -18 c121 -63 376 -144 544 -171 148 -24 194 -28 324 -28 335 -2
633 66 931 212 285 138 522 329 727 584 10 11 21 26 26 31 4 6 40 59 80 119
173 261 282 559 327 886 4 25 8 128 10 230 5 315 -49 584 -174 867 -108 247
-287 500 -470 667 -19 17 -43 40 -55 52 -12 12 -52 46 -91 76 -298 234 -651
384 -1020 432 -100 13 -436 21 -447 11z"/>
</g>
</svg>
